<?xml version="1.0" encoding="utf-8"?>
<!-- Generator: Adobe Illustrator 19.0.0, SVG Export Plug-In . SVG Version: 6.00 Build 0)  -->
<svg version="1.1" id="Calque_1" xmlns="http://www.w3.org/2000/svg" xmlns:xlink="http://www.w3.org/1999/xlink" x="0px" y="0px"
	 viewBox="0 0 1625 1773.4" style="enable-background:new 0 0 1625 1773.4;" xml:space="preserve">
<style type="text/css">
	.st0{fill:none;stroke:url(#SVGID_1_);stroke-width:60;stroke-miterlimit:10;}
	.st1{fill:none;stroke:url(#SVGID_2_);stroke-width:60;stroke-miterlimit:10;}
	.st2{fill:#333333;}
</style>
<linearGradient id="SVGID_1_" gradientUnits="userSpaceOnUse" x1="0" y1="886.6799" x2="1624.9584" y2="886.6799">
	<stop  offset="0" style="stop-color:#3DDEED"/>
	<stop  offset="1" style="stop-color:#5454ED"/>
</linearGradient>
<path class="st0" d="M30,609.8v553.8c0,108.2,57.7,208.2,151.4,262.3l479.6,276.9c93.7,54.1,209.1,54.1,302.8,0l479.6-276.9
	c93.7-54.1,151.4-154.1,151.4-262.3V609.8c0-108.2-57.7-208.2-151.4-262.3L963.9,70.6c-93.7-54.1-209.1-54.1-302.8,0L181.4,347.5
	C87.7,401.6,30,501.6,30,609.8z"/>
<linearGradient id="SVGID_2_" gradientUnits="userSpaceOnUse" x1="204.4893" y1="886.6799" x2="1420.4691" y2="886.6799" gradientTransform="matrix(0 -1 1 0 -74.2007 1699.1592)">
	<stop  offset="0" style="stop-color:#E57500"/>
	<stop  offset="0.112" style="stop-color:#E57E01"/>
	<stop  offset="0.2977" style="stop-color:#E59803"/>
	<stop  offset="0.3371" style="stop-color:#E59E03"/>
	<stop  offset="0.6502" style="stop-color:#E5C500"/>
	<stop  offset="0.9944" style="stop-color:#E57500"/>
</linearGradient>
<path class="st1" d="M653.6,1464.7h317.7c108.2,0,208.2-57.7,262.3-151.4l158.9-275.2c54.1-93.7,54.1-209.1,0-302.8l-158.9-275.2
	c-54.1-93.7-154.1-151.4-262.3-151.4H653.6c-108.2,0-208.2,57.7-262.3,151.4L232.5,735.3c-54.1,93.7-54.1,209.1,0,302.8l158.9,275.2
	C445.5,1406.9,545.4,1464.7,653.6,1464.7z"/>
<path class="st2" d="M699.9,993.2c3.8,0,7.1,1.6,9.9,4.7l27.6,32.1c-15.3,20.3-34.1,35.8-56.4,46.6c-22.3,10.8-49.1,16.2-80.4,16.2
	c-28,0-53.1-5.1-75.5-15.3c-22.3-10.2-41.4-24.4-57.2-42.7c-15.8-18.2-27.9-40-36.4-65.2c-8.4-25.3-12.6-52.9-12.6-82.8
	c0-30.3,4.7-58,14.1-83.2c9.4-25.2,22.6-46.9,39.6-65.1c17-18.2,37.4-32.4,61.1-42.5c23.7-10.1,49.9-15.2,78.6-15.2
	c28,0,52.4,4.8,73.4,14.4c20.9,9.6,38.9,22.3,53.8,38.1L716,767.9c-1.4,2.2-3.2,4.2-5.3,5.9c-2.2,1.7-5.2,2.5-9,2.5
	c-4,0-8.1-1.7-12.3-5c-4.2-3.3-9.5-7-15.9-10.9c-6.4-3.9-14.6-7.5-24.4-10.9c-9.8-3.3-22.3-5-37.4-5c-17.7,0-34,3.3-48.9,9.9
	c-14.9,6.6-27.6,16-38.3,28.3c-10.7,12.3-19,27.2-25,44.7c-6,17.6-9,37.3-9,59.2c0,22.7,3,42.8,9,60.5c6,17.7,14.1,32.5,24.4,44.6
	c10.3,12.1,22.3,21.3,36.2,27.7c13.9,6.4,28.8,9.6,44.8,9.6c9.6,0,18.2-0.6,25.9-1.7c7.7-1.1,14.9-2.9,21.4-5.3
	c6.5-2.4,12.7-5.5,18.5-9.3c5.8-3.8,11.6-8.5,17.3-14.1c1.7-1.7,3.6-3,5.5-4C695.5,993.7,697.6,993.2,699.9,993.2z"/>
<path class="st2" d="M870,1086.1h-57V687.3h48.8c2.9,0,5.4,0.1,7.5,0.3c2.1,0.2,4,0.6,5.7,1.4c1.7,0.7,3.2,1.9,4.7,3.6
	c1.4,1.7,2.8,3.9,4.1,6.6l103.9,221.5c2.7,5.9,5.2,12,7.6,18.3c2.3,6.3,4.6,12.7,6.9,19.2c2.2-6.6,4.6-13.1,7-19.6
	c2.4-6.4,5-12.6,7.7-18.5l102.9-220.9c1.3-2.8,2.6-5,4-6.6c1.4-1.7,2.9-2.8,4.6-3.6c1.7-0.7,3.6-1.2,5.7-1.4
	c2.1-0.2,4.6-0.3,7.5-0.3h48.8v398.9h-57V828.5c0-4.8,0.1-10,0.4-15.7c0.2-5.7,0.6-11.5,1.1-17.4l-105.1,226.2
	c-2.4,5.2-5.5,9.2-9.4,12c-3.8,2.9-8.3,4.3-13.5,4.3h-8.9c-5.1,0-9.6-1.4-13.5-4.3c-3.8-2.8-7-6.8-9.4-12l-106.6-227
	c0.6,6.1,1.1,12,1.3,17.8c0.2,5.8,0.4,11.2,0.4,16.1"/>
</svg>
